<svg xmlns="http://www.w3.org/2000/svg" width="163" height="59.586" viewBox="0 0 163 59.586">
  <g id="LOGO" transform="translate(-1022.467 -462.85)">
    <g id="グループ_159" data-name="グループ 159" transform="translate(1082.129 470.983)">
      <path id="パス_362" data-name="パス 362" d="M1105.845,485.153V474.387h6.81v1.038h-5.573v3.741h5.269v1.039h-5.269v3.908h5.573v1.039Z" transform="translate(-1105.845 -474.265)" fill="#fff"/>
      <path id="パス_363" data-name="パス 363" d="M1122.107,479.655l4.092,5.5h-1.481l-3.329-4.566-3.33,4.566h-1.48l4.092-5.513-3.894-5.253h1.482l3.145,4.321,3.146-4.321h1.466Z" transform="translate(-1108.898 -474.265)" fill="#fff"/>
      <path id="パス_364" data-name="パス 364" d="M1132.05,474.387h4.26a3.862,3.862,0,0,1,2.634.824,2.945,2.945,0,0,1,.939,2.337,2.979,2.979,0,0,1-.946,2.351,3.826,3.826,0,0,1-2.627.84H1133.3v4.413h-1.252Zm4.138,5.314q2.458,0,2.459-2.152,0-2.123-2.459-2.123H1133.3V479.7Z" transform="translate(-1113.299 -474.265)" fill="#fff"/>
      <path id="パス_365" data-name="パス 365" d="M1147.557,484.554a4.406,4.406,0,0,1-1.7-1.908,6.657,6.657,0,0,1-.6-2.917,6.821,6.821,0,0,1,.587-2.94,4.3,4.3,0,0,1,1.7-1.908,5.491,5.491,0,0,1,5.238,0,4.309,4.309,0,0,1,1.7,1.908,6.791,6.791,0,0,1,.587,2.924,6.7,6.7,0,0,1-.6,2.924,4.4,4.4,0,0,1-1.7,1.916,5.374,5.374,0,0,1-5.206,0Zm5.268-1.55a6.157,6.157,0,0,0,.008-6.573,3.673,3.673,0,0,0-5.337.007,6.113,6.113,0,0,0,0,6.558,3.648,3.648,0,0,0,5.329.008Z" transform="translate(-1117.056 -474.216)" fill="#fff"/>
      <path id="パス_366" data-name="パス 366" d="M1169.569,474.387h1.176v10.766h-.962l-6.489-8.658v8.658h-1.176V474.387h.963l6.489,8.658Z" transform="translate(-1121.851 -474.265)" fill="#fff"/>
      <path id="パス_367" data-name="パス 367" d="M1177.888,485.153V474.387h6.81v1.038h-5.573v3.741h5.269v1.039h-5.269v3.908h5.573v1.039Z" transform="translate(-1126.337 -474.265)" fill="#fff"/>
      <path id="パス_368" data-name="パス 368" d="M1197.76,474.387h1.176v10.766h-.962l-6.49-8.658v8.658h-1.176V474.387h.962l6.49,8.658Z" transform="translate(-1129.87 -474.265)" fill="#fff"/>
      <path id="パス_369" data-name="パス 369" d="M1208.219,485.153v-9.7h-3.741v-1.069h8.765v1.069h-3.756v9.7Z" transform="translate(-1133.901 -474.265)" fill="#fff"/>
      <path id="パス_370" data-name="パス 370" d="M1218.839,485.153V474.387h1.252v10.766Z" transform="translate(-1137.985 -474.265)" fill="#fff"/>
      <path id="パス_371" data-name="パス 371" d="M1232.114,485.153l-1.191-2.764h-5.62l-1.191,2.764h-1.283l4.734-10.766h1.084l4.733,10.766Zm-6.368-3.8h4.734l-2.367-5.513Z" transform="translate(-1139.12 -474.265)" fill="#fff"/>
      <path id="パス_372" data-name="パス 372" d="M1239.815,485.153V474.387h1.252v9.7h5.391v1.069Z" transform="translate(-1143.952 -474.265)" fill="#fff"/>
    </g>
    <g id="グループ_160" data-name="グループ 160" transform="translate(1081.623 488.408)">
      <path id="パス_373" data-name="パス 373" d="M1122.866,519.553l-2.374-5.509h-11.135l-2.373,5.509h-1.846L1114.1,498.9h1.641l8.967,20.657Zm-12.833-7.092h9.786l-4.894-11.427Z" transform="translate(-1105.139 -498.661)" fill="#fff"/>
      <path id="パス_374" data-name="パス 374" d="M1137.283,519.553V498.9h12.453v1.552H1139.1v7.824h10.051v1.582H1139.1v9.7Z" transform="translate(-1114.282 -498.661)" fill="#fff"/>
      <path id="パス_375" data-name="パス 375" d="M1175.751,519.553h-1.992l-3.487-6.622a4.178,4.178,0,0,0-1.641-1.845,5.548,5.548,0,0,0-2.579-.5h-4.307v8.967h-1.816V498.9h8.262a7.576,7.576,0,0,1,5.011,1.479,6.114,6.114,0,0,1,.366,8.175,6.4,6.4,0,0,1-3.971,1.772,3.424,3.424,0,0,1,1.363.806,5.894,5.894,0,0,1,1.1,1.51Zm-7.677-10.52q5.1,0,5.1-4.366a3.883,3.883,0,0,0-1.26-3.179,5.946,5.946,0,0,0-3.838-1.041h-6.359v8.585Z" transform="translate(-1120.724 -498.661)" fill="#fff"/>
      <path id="パス_376" data-name="パス 376" d="M1187.855,519.553V498.9h1.818v20.657Z" transform="translate(-1128.667 -498.661)" fill="#fff"/>
      <path id="パス_377" data-name="パス 377" d="M1201.137,518.419a8.38,8.38,0,0,1-3.253-3.663,14.49,14.49,0,0,1,0-11.281,8.3,8.3,0,0,1,3.253-3.649,9.537,9.537,0,0,1,4.981-1.26,11.043,11.043,0,0,1,3.926.675,8.486,8.486,0,0,1,3.106,2.021l-.762,1.436a9.691,9.691,0,0,0-2.944-1.934,8.887,8.887,0,0,0-3.3-.586,6.867,6.867,0,0,0-5.553,2.344,9.931,9.931,0,0,0-1.978,6.593,10.031,10.031,0,0,0,1.963,6.622,6.86,6.86,0,0,0,5.568,2.344,8.887,8.887,0,0,0,3.3-.586,9.664,9.664,0,0,0,2.944-1.934l.762,1.436a8.479,8.479,0,0,1-3.106,2.021,11.044,11.044,0,0,1-3.926.674A9.449,9.449,0,0,1,1201.137,518.419Z" transform="translate(-1131.195 -498.567)" fill="#fff"/>
      <path id="パス_378" data-name="パス 378" d="M1240.635,519.553l-2.374-5.509h-11.134l-2.373,5.509h-1.846l8.967-20.657h1.64l8.967,20.657Zm-12.834-7.092h9.787l-4.894-11.427Z" transform="translate(-1138.637 -498.661)" fill="#fff"/>
    </g>
    <g id="グループ_163" data-name="グループ 163" transform="translate(1022.467 462.85)">
      <g id="グループ_162" data-name="グループ 162">
        <g id="グループ_161" data-name="グループ 161">
          <path id="パス_379" data-name="パス 379" d="M1052.434,522.436c-2.3,0-3.334-2.415-4.091-4.178-.169-.395-.329-.766-.489-1.092a20.638,20.638,0,0,1-1.2-3.4,22.659,22.659,0,0,0-.94-2.808c-.153-.351-.359-.726-.556-1.088-.691-1.265-1.473-2.7-.853-4.323a8.923,8.923,0,0,1,.673-1.346,3.118,3.118,0,0,0,.6-2.292l-.021-.156a12.74,12.74,0,0,0-.655-2.94,5.541,5.541,0,0,0-1.057-1.4,4.885,4.885,0,0,1-1.557-2.651,5.338,5.338,0,0,1,.014-1.235,3.009,3.009,0,0,0-.051-1.259,3.214,3.214,0,0,0-3.139-2.218,10.347,10.347,0,0,0-2.394.4,12.534,12.534,0,0,1-2.448.435,12.217,12.217,0,0,1-6.391-1.4c-4.187-2.046-5.075-5.49-5.394-8.592,0-.024,0-.048-.005-.072a13.565,13.565,0,0,1,1.538-6.572,16.377,16.377,0,0,1,2.779-3.715c.292-.321.577-.637.848-.947s.558-.62.837-.919a17.485,17.485,0,0,0,1.616-1.9,8.009,8.009,0,0,0,.424-.72,3.6,3.6,0,0,1,2.067-2.019,18.553,18.553,0,0,1,4.687-.7c.71-.046,1.378-.089,2.011-.164.25-.029.515-.074.8-.12a10.567,10.567,0,0,1,1.729-.193h.11a2.691,2.691,0,0,1,2.493,1.619,2.3,2.3,0,0,1,.034,1.636.537.537,0,0,0,.237.64c.3.175.6.352.889.526a24.535,24.535,0,0,0,3.959,2.047.673.673,0,0,0,.218.045.52.52,0,0,0,.351-.14.529.529,0,0,0,.162-.454,1.253,1.253,0,0,1,.778-1.3,8.575,8.575,0,0,1,.886-.278l.229-.065a1.253,1.253,0,0,1,.788.029c.277.1.554.209.831.314l.137.053c.75.287,1.523.583,2.3.837a9.891,9.891,0,0,0,1.214.291,4.878,4.878,0,0,1,3.154,1.558,17.506,17.506,0,0,1,2.433,4.673c.272.678.529,1.317.8,1.9.215.459.423.932.625,1.393a17.143,17.143,0,0,0,2.748,4.819c1.4,1.517,2.49,1.761,4.558,1.761h.29a2.085,2.085,0,0,1,2.066,1.069,3.392,3.392,0,0,1-.65,3.3,37.959,37.959,0,0,1-3.17,3.465c-.563.565-1.086,1.092-1.591,1.632-.222.236-.45.469-.672.695-1.514,1.538-2.487,2.67-2.215,4.31a7.522,7.522,0,0,0,.6,1.767,4.969,4.969,0,0,1,.441,3.964,5.976,5.976,0,0,1-2.074,2.642c-.233.2-.453.384-.668.585a3.83,3.83,0,0,0-1.015,2.313,5.475,5.475,0,0,1-1.045,2.638,3.614,3.614,0,0,1-.877.7,4.158,4.158,0,0,0-.5.351.527.527,0,0,0-.14.206,4.6,4.6,0,0,0-.16.909,4.861,4.861,0,0,1-.341,1.5c-1.015,2.127-4.5,5.184-6.974,5.586a3.854,3.854,0,0,1-.611.051h0Zm-13.324-34.893a5.719,5.719,0,0,1,5.522,3.951,5.34,5.34,0,0,1,.162,2.266,3.33,3.33,0,0,0-.025.667,3.217,3.217,0,0,0,.91,1.28,7.633,7.633,0,0,1,1.515,2.092,14.436,14.436,0,0,1,.841,3.593l.024.157a5.5,5.5,0,0,1-.913,3.9,6.727,6.727,0,0,0-.5.985c-.164.429-.011.909.709,2.228.225.412.458.837.656,1.292a24.547,24.547,0,0,1,1.05,3.113,18.759,18.759,0,0,0,1.046,3c.177.361.355.771.541,1.206.37.863,1.142,2.66,1.79,2.66h0a1.266,1.266,0,0,0,.209-.019c1.6-.26,4.415-2.72,5.115-4.191a5.187,5.187,0,0,0,.114-.717,6.264,6.264,0,0,1,.3-1.5,3.053,3.053,0,0,1,.8-1.178,6.108,6.108,0,0,1,.832-.605,3.8,3.8,0,0,0,.322-.214,3.523,3.523,0,0,0,.492-1.49,6.2,6.2,0,0,1,1.766-3.665c.245-.228.492-.44.755-.663a3.707,3.707,0,0,0,1.328-1.553c.241-.7.062-1.157-.366-2.134a9.81,9.81,0,0,1-.779-2.364c-.5-3.022,1.464-5.02,2.9-6.48.208-.21.422-.428.627-.647.522-.558,1.063-1.1,1.642-1.685a36.048,36.048,0,0,0,2.966-3.232,1.825,1.825,0,0,0,.2-.334,7.559,7.559,0,0,1-6.325-2.567,18.846,18.846,0,0,1-3.182-5.47c-.212-.483-.412-.938-.618-1.379-.3-.645-.57-1.316-.856-2.026a15.828,15.828,0,0,0-2.037-4.008c-.343-.415-.8-.519-1.708-.7a12.227,12.227,0,0,1-1.515-.369c-.829-.273-1.631-.58-2.407-.877l-.136-.052-.241-.092a3,3,0,0,1-.868,1.368,3.048,3.048,0,0,1-2.978.623c-.014,0-.067-.021-.12-.041a26.374,26.374,0,0,1-4.38-2.246q-.432-.259-.871-.515a3.045,3.045,0,0,1-1.375-3.525.563.563,0,0,0-.172-.03h-.08a8.929,8.929,0,0,0-1.305.158c-.325.054-.628.1-.911.136-.7.084-1.4.129-2.144.176a16.878,16.878,0,0,0-4.047.571c-.206.07-.276.117-.66.826a10.328,10.328,0,0,1-.57.96,19.035,19.035,0,0,1-1.819,2.158c-.289.309-.555.595-.808.884-.282.325-.58.654-.884.99a14.32,14.32,0,0,0-2.384,3.135,11.14,11.14,0,0,0-1.287,5.322c.3,2.916,1.1,5.146,3.976,6.549l.129.067a9.7,9.7,0,0,0,5.076,1.1,10.561,10.561,0,0,0,1.953-.363A12.555,12.555,0,0,1,1039.111,487.544Zm20.993,24v0Zm11.7-24.758h0Zm-29.718-21.512h0Z" transform="translate(-1022.467 -462.85)" fill="#fff"/>
        </g>
      </g>
    </g>
  </g>
</svg>
